<mxfile host="Electron" modified="2023-05-07T00:43:16.538Z" agent="Mozilla/5.0 (Windows NT 10.0; Win64; x64) AppleWebKit/537.36 (KHTML, like Gecko) draw.io/21.2.1 Chrome/112.0.5615.87 Electron/24.1.2 Safari/537.36" etag="ZnNBkPoQEfs2pY32JD7g" version="21.2.1" type="device">
  <diagram name="Page-1" id="O9UShN2Z6BHuCNXSi1BA">
    <mxGraphModel dx="1500" dy="956" grid="1" gridSize="10" guides="1" tooltips="1" connect="1" arrows="1" fold="1" page="1" pageScale="1" pageWidth="850" pageHeight="1100" math="0" shadow="0">
      <root>
        <mxCell id="0" />
        <mxCell id="1" parent="0" />
        <mxCell id="7yEZX8vdUZ2BybHBwVsb-3" value="" style="edgeStyle=orthogonalEdgeStyle;rounded=0;orthogonalLoop=1;jettySize=auto;html=1;" edge="1" parent="1" source="7yEZX8vdUZ2BybHBwVsb-1" target="7yEZX8vdUZ2BybHBwVsb-2">
          <mxGeometry relative="1" as="geometry" />
        </mxCell>
        <mxCell id="7yEZX8vdUZ2BybHBwVsb-1" value="LOGIN" style="rounded=0;whiteSpace=wrap;html=1;" vertex="1" parent="1">
          <mxGeometry x="197" y="312" width="120" height="60" as="geometry" />
        </mxCell>
        <mxCell id="7yEZX8vdUZ2BybHBwVsb-5" value="" style="edgeStyle=orthogonalEdgeStyle;rounded=0;orthogonalLoop=1;jettySize=auto;html=1;" edge="1" parent="1" source="7yEZX8vdUZ2BybHBwVsb-2" target="7yEZX8vdUZ2BybHBwVsb-4">
          <mxGeometry relative="1" as="geometry" />
        </mxCell>
        <mxCell id="7yEZX8vdUZ2BybHBwVsb-2" value="HAS" style="rhombus;whiteSpace=wrap;html=1;rounded=0;" vertex="1" parent="1">
          <mxGeometry x="217" y="442" width="80" height="80" as="geometry" />
        </mxCell>
        <mxCell id="7yEZX8vdUZ2BybHBwVsb-4" value="MEMBER" style="whiteSpace=wrap;html=1;rounded=0;" vertex="1" parent="1">
          <mxGeometry x="197" y="612" width="120" height="60" as="geometry" />
        </mxCell>
        <mxCell id="7yEZX8vdUZ2BybHBwVsb-6" value="&lt;u&gt;USER_ID&lt;/u&gt;" style="ellipse;whiteSpace=wrap;html=1;" vertex="1" parent="1">
          <mxGeometry x="107" y="152" width="120" height="80" as="geometry" />
        </mxCell>
        <mxCell id="7yEZX8vdUZ2BybHBwVsb-10" value="PASSWORD" style="ellipse;whiteSpace=wrap;html=1;" vertex="1" parent="1">
          <mxGeometry x="297" y="152" width="120" height="80" as="geometry" />
        </mxCell>
        <mxCell id="7yEZX8vdUZ2BybHBwVsb-12" value="" style="endArrow=none;html=1;rounded=0;exitX=0.667;exitY=0;exitDx=0;exitDy=0;exitPerimeter=0;entryX=0.353;entryY=0.98;entryDx=0;entryDy=0;entryPerimeter=0;" edge="1" parent="1" source="7yEZX8vdUZ2BybHBwVsb-1" target="7yEZX8vdUZ2BybHBwVsb-10">
          <mxGeometry width="50" height="50" relative="1" as="geometry">
            <mxPoint x="277" y="302" as="sourcePoint" />
            <mxPoint x="347" y="222" as="targetPoint" />
          </mxGeometry>
        </mxCell>
        <mxCell id="7yEZX8vdUZ2BybHBwVsb-13" value="" style="endArrow=none;html=1;rounded=0;entryX=0.5;entryY=1;entryDx=0;entryDy=0;exitX=0.25;exitY=0;exitDx=0;exitDy=0;exitPerimeter=0;" edge="1" parent="1" source="7yEZX8vdUZ2BybHBwVsb-1" target="7yEZX8vdUZ2BybHBwVsb-6">
          <mxGeometry width="50" height="50" relative="1" as="geometry">
            <mxPoint x="227" y="302" as="sourcePoint" />
            <mxPoint x="222" y="232" as="targetPoint" />
          </mxGeometry>
        </mxCell>
        <mxCell id="7yEZX8vdUZ2BybHBwVsb-15" value="BOOK" style="rounded=0;whiteSpace=wrap;html=1;" vertex="1" parent="1">
          <mxGeometry x="637" y="312" width="120" height="60" as="geometry" />
        </mxCell>
        <mxCell id="7yEZX8vdUZ2BybHBwVsb-16" value="&lt;u&gt;MEMBER_ID&lt;/u&gt;" style="ellipse;whiteSpace=wrap;html=1;" vertex="1" parent="1">
          <mxGeometry x="107" y="772" width="120" height="80" as="geometry" />
        </mxCell>
        <mxCell id="7yEZX8vdUZ2BybHBwVsb-17" value="MEMBER NAME" style="ellipse;whiteSpace=wrap;html=1;" vertex="1" parent="1">
          <mxGeometry x="297" y="772" width="120" height="80" as="geometry" />
        </mxCell>
        <mxCell id="7yEZX8vdUZ2BybHBwVsb-18" value="" style="endArrow=none;html=1;rounded=0;exitX=0.5;exitY=0;exitDx=0;exitDy=0;" edge="1" parent="1" source="7yEZX8vdUZ2BybHBwVsb-16">
          <mxGeometry width="50" height="50" relative="1" as="geometry">
            <mxPoint x="197" y="722" as="sourcePoint" />
            <mxPoint x="247" y="672" as="targetPoint" />
          </mxGeometry>
        </mxCell>
        <mxCell id="7yEZX8vdUZ2BybHBwVsb-19" value="" style="endArrow=none;html=1;rounded=0;entryX=0.69;entryY=1.028;entryDx=0;entryDy=0;entryPerimeter=0;exitX=0.5;exitY=0;exitDx=0;exitDy=0;" edge="1" parent="1" source="7yEZX8vdUZ2BybHBwVsb-17" target="7yEZX8vdUZ2BybHBwVsb-4">
          <mxGeometry width="50" height="50" relative="1" as="geometry">
            <mxPoint x="307" y="752" as="sourcePoint" />
            <mxPoint x="357" y="702" as="targetPoint" />
          </mxGeometry>
        </mxCell>
        <mxCell id="7yEZX8vdUZ2BybHBwVsb-20" value="&lt;u&gt;BOOK_ID&lt;/u&gt;" style="ellipse;whiteSpace=wrap;html=1;" vertex="1" parent="1">
          <mxGeometry x="537" y="142" width="120" height="80" as="geometry" />
        </mxCell>
        <mxCell id="7yEZX8vdUZ2BybHBwVsb-21" value="BOOK NAME" style="ellipse;whiteSpace=wrap;html=1;" vertex="1" parent="1">
          <mxGeometry x="687" y="142" width="120" height="80" as="geometry" />
        </mxCell>
        <mxCell id="7yEZX8vdUZ2BybHBwVsb-22" value="AUTHOR" style="ellipse;whiteSpace=wrap;html=1;" vertex="1" parent="1">
          <mxGeometry x="827" y="152" width="120" height="80" as="geometry" />
        </mxCell>
        <mxCell id="7yEZX8vdUZ2BybHBwVsb-23" value="" style="endArrow=none;html=1;rounded=0;exitX=0.75;exitY=0;exitDx=0;exitDy=0;entryX=0.318;entryY=0.992;entryDx=0;entryDy=0;entryPerimeter=0;" edge="1" parent="1" source="7yEZX8vdUZ2BybHBwVsb-15" target="7yEZX8vdUZ2BybHBwVsb-22">
          <mxGeometry width="50" height="50" relative="1" as="geometry">
            <mxPoint x="837" y="272" as="sourcePoint" />
            <mxPoint x="887" y="222" as="targetPoint" />
          </mxGeometry>
        </mxCell>
        <mxCell id="7yEZX8vdUZ2BybHBwVsb-24" value="" style="endArrow=none;html=1;rounded=0;exitX=0.5;exitY=0;exitDx=0;exitDy=0;" edge="1" parent="1" source="7yEZX8vdUZ2BybHBwVsb-15">
          <mxGeometry width="50" height="50" relative="1" as="geometry">
            <mxPoint x="697" y="272" as="sourcePoint" />
            <mxPoint x="747" y="222" as="targetPoint" />
          </mxGeometry>
        </mxCell>
        <mxCell id="7yEZX8vdUZ2BybHBwVsb-25" value="" style="endArrow=none;html=1;rounded=0;entryX=0.601;entryY=1.004;entryDx=0;entryDy=0;entryPerimeter=0;exitX=0.25;exitY=0;exitDx=0;exitDy=0;" edge="1" parent="1" source="7yEZX8vdUZ2BybHBwVsb-15" target="7yEZX8vdUZ2BybHBwVsb-20">
          <mxGeometry width="50" height="50" relative="1" as="geometry">
            <mxPoint x="657" y="302" as="sourcePoint" />
            <mxPoint x="647" y="252" as="targetPoint" />
          </mxGeometry>
        </mxCell>
        <mxCell id="7yEZX8vdUZ2BybHBwVsb-26" value="BORROW" style="rhombus;whiteSpace=wrap;html=1;rounded=0;" vertex="1" parent="1">
          <mxGeometry x="587" y="542" width="160" height="90" as="geometry" />
        </mxCell>
        <mxCell id="7yEZX8vdUZ2BybHBwVsb-28" value="" style="endArrow=none;html=1;rounded=0;exitX=1;exitY=0.5;exitDx=0;exitDy=0;entryX=0;entryY=1;entryDx=0;entryDy=0;" edge="1" parent="1" source="7yEZX8vdUZ2BybHBwVsb-4" target="7yEZX8vdUZ2BybHBwVsb-26">
          <mxGeometry width="50" height="50" relative="1" as="geometry">
            <mxPoint x="437" y="612" as="sourcePoint" />
            <mxPoint x="487" y="562" as="targetPoint" />
          </mxGeometry>
        </mxCell>
        <mxCell id="7yEZX8vdUZ2BybHBwVsb-29" value="" style="endArrow=none;html=1;rounded=0;exitX=0.5;exitY=0;exitDx=0;exitDy=0;" edge="1" parent="1" source="7yEZX8vdUZ2BybHBwVsb-26">
          <mxGeometry width="50" height="50" relative="1" as="geometry">
            <mxPoint x="672" y="422" as="sourcePoint" />
            <mxPoint x="722" y="372" as="targetPoint" />
          </mxGeometry>
        </mxCell>
      </root>
    </mxGraphModel>
  </diagram>
</mxfile>
